<svg role="img" viewBox="0 0 512 512" xmlns="http://www.w3.org/2000/svg" width="512" height="512">
  <g fill="#1a1a1a">
    <!-- Base bag shape without the full S cutouts -->
    <path d="m327.1893333333333 511.55199999999996 153.94133333333332 -33.30133333333333s-55.552 -375.74399999999997 -56 -378.24c-0.38399999999999995 -2.474666666666667 -2.432 -4.096 -4.501333333333333 -4.096s-41.152 -2.9013333333333335 -41.152 -2.9013333333333335 -27.199999999999996 -27.178666666666665 -30.698666666666668 -30.101333333333333c-0.96 -0.7893333333333332 -1.5999999999999999 -1.216 -2.5813333333333333 -1.5786666666666664l-19.498666666666665 450.21866666666665h0.49066666666666664zM249.81333333333333 241.17333333333332s-17.28 -9.045333333333332 -37.84533333333333 -9.045333333333332c-30.869333333333334 0 -32.08533333333333 19.328 -32.08533333333333 24.34133333333333 0 26.282666666666664 69.12 36.586666666666666 69.12 98.75199999999998 0 48.959999999999994 -30.72 80.21333333333332 -72.66133333333333 80.21333333333332 -50.218666666666664 0 -75.52 -31.253333333333334 -75.52 -31.253333333333334l13.781333333333333 -44.50133333333333s26.560000000000002 22.741333333333333 48.63999999999999 22.741333333333333c14.4 0 20.799999999999997 -11.626666666666667 20.799999999999997 -19.882666666666665 0 -34.538666666666664 -56.61866666666666 -36.138666666666666 -56.61866666666666 -92.99199999999999 -0.7253333333333334 -47.72266666666667 33.51466666666666 -94.208 102.976 -94.208 26.815999999999995 0 40 7.7013333333333325 40 7.7013333333333325l-20.159999999999997 57.919999999999995 -0.42666666666666664 0.21333333333333332zM238.29333333333332 17.706666666666663c2.9013333333333335 0 5.781333333333333 0.8106666666666666 8.64 2.88 -20.991999999999997 9.92 -44.032 34.965333333333334 -53.504 85.16266666666667 -13.994666666666667 4.544 -27.583999999999996 8.64 -40.29866666666666 12.330666666666666C164.20266666666666 80 190.95466666666667 17.919999999999998 238.29333333333332 17.919999999999998V17.706666666666663zm26.346666666666668 62.91199999999999v2.88c-16.08533333333333 4.949333333333334 -33.77066666666666 10.325333333333333 -51.072 15.701333333333332 9.941333333333333 -37.90933333333333 28.43733333333333 -56.42666666666666 44.48 -63.38133333333333 4.117333333333333 10.687999999999999 6.592 25.087999999999997 6.592 44.8zm11.498666666666667 -47.65866666666666c14.805333333333332 1.5786666666666664 24.34133333333333 18.496 30.485333333333333 37.44 -7.445333333333332 2.432 -15.68 4.928 -24.703999999999997 7.808v-5.3759999999999994c0 -16.042666666666666 -2.048 -29.247999999999998 -5.781333333333333 -39.91466666666666v0.042666666666666665zm63.82933333333333 27.498666666666665c-0.42666666666666664 0 -1.2799999999999998 0.448 -1.664 0.448s-6.165333333333333 1.5999999999999999 -15.232 4.4799999999999995c-9.024 -26.304000000000002 -25.087999999999997 -50.56 -53.504 -50.56h-2.453333333333333C258.88 4.458666666666666 248.93866666666668 0 240.32 0 174.05866666666668 0 142.39999999999998 82.70933333333332 132.48 124.71466666666666c-25.471999999999998 7.786666666666666 -44.010666666666665 13.568 -46.08 14.378666666666668 -14.4 4.544 -14.805333333333332 4.949333333333334 -16.46933333333333 18.56 -1.5999999999999999 9.856 -39.04 300.0106666666667 -39.04 300.0106666666667L320.192 512l19.776 -451.54133333333334z"/>
    <!-- We must draw polygons over the exact original "S" hole inside the shape. -->
    <path d="M 80 180 L 300 130 L 300 450 L 50 450 Z" />
  </g>
  <!--  
    Centering the P specifically within the *leftmost, front-facing* face of the bag 
    (the red bounding box you drew).
    The left panel is bounded basically from X=50 to X=280 and Y=150 to Y=400. Center is ~ (165, 300)
    We will skew the P slightly to give it that perspective distortion and slant of your red box.
    Instead of rotate, let's use a full transform matrix or precise skew/rotate to match the bag's 3D perspective.
  -->
  <text x="180" y="380" font-family="'Segoe UI', Arial, sans-serif" font-weight="900" font-style="italic" font-size="280" fill="#ffffff" text-anchor="middle" transform="rotate(2, 180, 380) skewX(-15)">P</text>
</svg>
